<?xml version="1.0" encoding="UTF-8"?>
<!DOCTYPE svg PUBLIC "-//W3C//DTD SVG 1.1//EN" "http://www.w3.org/Graphics/SVG/1.1/DTD/svg11.dtd">
<!-- Creator: CorelDRAW X7 -->
<svg xmlns="http://www.w3.org/2000/svg" xml:space="preserve" width="92.4278mm" height="12.7mm" version="1.1" style="shape-rendering:geometricPrecision; text-rendering:geometricPrecision; image-rendering:optimizeQuality; fill-rule:evenodd; clip-rule:evenodd"
viewBox="0 0 9243 1270"
 xmlns:xlink="http://www.w3.org/1999/xlink">
 <defs>
  <style type="text/css">
   <![CDATA[
    .fil0 {fill:#003896}
    .fil1 {fill:#EE3A37}
    .fil2 {fill:#F89A39}
   ]]>
  </style>
 </defs>
 <g id="Capa_x0020_1">
  <metadata id="CorelCorpID_0Corel-Layer"/>
  <path class="fil0" d="M3707 968c71,0 133,-25 175,-46l-10 -68 -100 0 -5 -215 0 -271c0,-47 -29,-66 -76,-66 -54,0 -120,17 -182,30l0 72 96 0 0 234 -5 164c-34,16 -112,52 -164,52 -63,0 -76,-46 -76,-114l-3 -103 0 -269c0,-46 -26,-66 -73,-66 -54,0 -125,16 -187,30l0 72 99 0 0 367c0,111 15,203 206,203 86,0 156,-54 206,-99 5,68 42,93 99,93z"/>
  <path class="fil0" d="M6129 974c44,0 141,-23 180,-41l-19 -95c-34,5 -86,8 -125,8 -73,0 -94,-8 -94,-66l-5 -145 0 -217 217 0 0 -102 -217 0 0 -133 -34 0 -224 173 0 62 94 0 -3 353c0,187 78,203 230,203z"/>
  <path class="fil1" d="M1233 382c-20,20 -41,47 -65,100l-206 476 -120 35 -196 -537c-13,-31 -28,-47 -57,-67 0,-29 0,-42 8,-73l284 0c0,6 0,78 -2,81l-76 0 130 395 131 -324c10,-24 0,-59 -16,-64 -2,-10 -36,-13 -42,-14 0,-16 -5,-52 3,-74l224 0c0,6 0,61 0,66z"/>
  <path class="fil1" d="M1633 961l-368 0c-3,-16 -3,-39 -3,-66l71 -22c20,-6 34,-28 34,-54l2 -181 0 -235 -109 0 0 -77c65,-14 156,-26 214,-26 36,0 54,11 54,52l0 286 3 191c3,29 8,39 21,42l88 21c0,23 -2,50 -7,69z"/>
  <path class="fil1" d="M1907 975c-94,0 -165,-20 -235,-50l10 -175 65 0c11,86 76,133 162,133 71,0 110,-16 110,-75 0,-100 -321,-81 -321,-307 0,-137 120,-200 250,-200 66,0 141,13 222,48l-23 165 -58 -6c-13,-59 -52,-113 -156,-113 -65,0 -89,27 -89,71 0,94 337,95 337,300 0,160 -152,209 -274,209z"/>
  <path class="fil1" d="M1437 228c-31,0 -104,-78 -104,-109 0,-34 75,-108 104,-108 31,0 110,75 110,108 0,29 -73,109 -110,109z"/>
  <path class="fil0" d="M4318 630l-3 180c-31,10 -68,27 -115,27 -83,0 -146,-56 -146,-178 0,-151 31,-260 159,-260 47,0 79,7 105,13l0 218zm261 224l-94 0 -5 -223 0 -514c0,-49 -19,-59 -63,-59 -55,0 -144,11 -206,25l0 76 107 0 0 158c-29,-4 -58,-6 -102,-6 -185,0 -334,136 -334,352 0,257 136,306 263,306 81,0 136,-59 173,-96 0,43 15,99 75,99 87,0 147,-31 199,-59l-13 -59z"/>
  <path class="fil0" d="M4842 641c-86,0 -115,-56 -115,-126 0,-69 26,-136 115,-136 73,0 107,58 107,134 0,77 -36,128 -107,128zm-128 307l199 0c75,0 114,17 114,64 0,65 -52,114 -146,114 -141,0 -201,-43 -201,-108 0,-28 16,-52 34,-70zm509 -647l-185 44c-39,-28 -104,-51 -196,-51 -177,0 -266,111 -266,231 0,72 31,124 84,156 -45,58 -81,130 -81,181 0,58 47,77 70,77 -47,21 -104,73 -104,137 0,119 133,149 263,149 204,0 379,-97 379,-246 0,-117 -55,-166 -266,-166l-212 0 0 -112c39,15 86,23 136,23 159,0 271,-89 271,-217 0,-40 -8,-70 -15,-85l122 0 0 -121z"/>
  <path class="fil0" d="M5361 569c6,-106 55,-177 147,-177 75,0 112,64 109,177l-256 0zm428 29c0,-176 -73,-296 -271,-296 -196,0 -318,172 -318,352 0,262 128,317 339,317 78,0 172,-22 240,-60l-29 -88c-70,15 -138,19 -182,19 -113,0 -196,-40 -204,-194l425 0 0 -50z"/>
  <path class="fil1" d="M383 810c-21,7 -86,34 -136,34 -49,0 -73,-26 -73,-60 0,-54 42,-80 112,-92 39,-8 86,-12 97,-15l0 133zm266 44l-97 0 -7 -216 0 -153c0,-177 -167,-185 -264,-184 -73,0 -149,11 -227,41l26 112c68,-17 125,-24 170,-24 109,0 133,20 133,87l0 81c-21,2 -73,7 -125,15 -121,18 -246,68 -246,209 0,101 68,150 167,150 97,0 175,-69 206,-104 6,68 26,103 115,103 45,0 120,-31 157,-65l-8 -52z"/>
  <path class="fil0" d="M2919 612c0,94 -10,138 -47,190 -34,51 -96,58 -123,58 -26,0 -88,-8 -88,-8l-5 -205 0 -215c36,-16 117,-21 117,-21 162,-4 146,201 146,201zm175 -18c0,0 5,-159 -84,-232 0,0 -54,-57 -195,-57 0,0 -84,0 -162,36l0 -240c0,0 5,-42 -44,-43 -60,-1 -141,10 -222,29l0 72 109 0 0 487 -7 292c0,0 133,40 271,31 0,0 149,4 253,-119 0,0 89,-90 81,-256z"/>
  <path class="fil2" d="M7504 369c-16,-4 -34,-9 -73,-9 -84,0 -144,63 -175,116l0 485 -65 0 0 -645 65 0 0 86c29,-51 107,-99 190,-99 37,0 63,6 71,9l-13 57z"/>
  <path class="fil2" d="M8555 961l0 -78c-54,33 -127,91 -237,91 -175,0 -185,-143 -185,-244l0 -414 65 0 0 394c0,106 2,201 133,201 89,0 196,-73 224,-91l0 -504 60 0 0 645 -60 0z"/>
  <path class="fil2" d="M6804 666c-96,0 -161,-49 -161,-153 0,-107 57,-167 164,-167 102,0 159,69 159,161 0,99 -68,159 -162,159zm-127 223l141 0c143,0 203,54 203,116 0,78 -96,167 -230,167 -127,0 -195,-57 -195,-132 0,-46 26,-100 81,-151zm456 -550l-177 0c-11,-8 -55,-46 -157,-46 -162,0 -229,106 -229,224 0,72 23,118 65,152 -34,53 -50,112 -50,153 0,23 11,52 37,59 -63,60 -94,125 -94,183 0,96 83,172 240,172 203,0 324,-128 324,-242 0,-90 -79,-171 -248,-171l-186 0 0 -134c39,23 92,33 149,33 131,0 230,-89 230,-210 0,-69 -19,-101 -26,-112l122 0 0 -61z"/>
  <path class="fil2" d="M7780 915c-164,0 -214,-135 -214,-276 0,-126 45,-282 212,-282 175,0 214,158 214,281 0,134 -42,277 -212,277zm3 -614c-164,0 -284,119 -284,344 0,214 107,326 276,326 162,0 282,-104 282,-333 0,-217 -91,-337 -274,-337z"/>
  <path class="fil2" d="M8923 913c-88,0 -117,-7 -148,-12l0 -469c18,-15 104,-68 174,-68 170,0 199,145 199,286 0,150 -73,263 -225,263zm37 -607c-73,0 -138,32 -185,64l0 -54 -66 0 0 905 66 0 0 -259c33,6 80,9 143,9 157,0 298,-80 298,-349 0,-194 -92,-316 -256,-316z"/>
 </g>
</svg>
